<svg fill="none" height="363" viewBox="0 0 1076 363" width="1076" xmlns="http://www.w3.org/2000/svg"><path d="m1000.83 229.155c21.41-.569 45.83-20.752 55.59-37.165l13.52 13.161c-11.64 19.841-39.06 42.359-73.613 43.282-31.118.532-51.019-14.977-57.83-36.878-18.526 25.594-43.554 41.435-73.627 55.411-19.906 55.369-39.434 87.439-72.487 88.322-16.527.441-31.175-10.811-31.175-27.335 0-27.794 32.302-57.576 87.887-71.082 2.629-7.205 4.883-14.776 7.512-22.36.789-2.439 1.597-4.924 2.417-7.44-13.328 15.049-28.825 25.8-43.736 26.198-25.847.692-34.214-16.461-33.078-42.421-30.088 44.969-77.054 45.363-93.499 45.801-19.907.532-44.693-4.063-57.464-17.243-10.517 29.2-24.038 72.378-37.184 117.425l-21.782.582c13.888-41.088 27.779-83.621 41.57-125.988-16.865 16.823-39.786 28.288-68.619 29.058-31.084.533-50.975-14.942-57.808-36.802-17.312 22.868-43.582 39.51-78.535 40.446-25.181.673-45.942-13.24-52.997-37.814-17.303 23.334-43.805 40.399-79.214 41.344-39.06.67-60.469-23.922-60.469-54.721 0-50.703 31.926-95.875 73.239-96.98 27.794-.742 39.814 19.969 39.814 37.622 0 42.064-42.819 69.502-92.019 60.3 1.878 20.229 14.273 35.297 43.942 34.505 28.858-.77 53.025-19.109 72.184-44.562 1.365-47.238 32.727-90.823 71.295-91.853 32.302-.864 49.201 30.236 38.311 62.825l-20.658.554c8.263-26.514-2.253-44.261-19.907-43.788-26.667.713-48.073 37.716-48.073 73.023 0 27.415 17.274 40.852 39.059 40.27 28.496-.764 52.412-18.651 71.455-43.607 1.828-48.84 33.068-91.393 73.151-92.463 27.794-.742 39.814 19.969 39.814 37.622 0 42.064-42.819 69.499-92.019 60.297 1.878 20.232 14.273 35.3 43.942 34.508 31.96-.855 58.165-23.256 78.187-53.01 8.68-26.62 17.306-52.959 25.857-78.597l20.28-.542-13.895 34.549c7.509-13.719 28.918-38.33 56.337-39.062 22.533-.601 37.182 18.536 37.182 46.706 0 33.052-25.538 72.794-46.572 87.627 22.668.103 59.354-20.551 81.102-65.263 3.843-15.685 9.171-32.571 15.055-49.605l-22.536.604 6.385-18.576 22.536-.601c7.134-20.0979 14.646-39.8294 20.655-57.2666l21.034-.5603c-7.888 20.4921-15.024 39.8387-21.034 57.2759l35.307-.945-6.386 18.573-35.682.955c-23.659 70.115-30.42 110.858-6.385 110.217 15.068-.401 36.953-21.716 56.672-51.414 8.113-24.201 17.187-50.781 27.09-79.273l20.279-.542c-18.401 54.575-34.176 99.691-46.195 135.692l-2.254 6.069c27.353-14.673 47.025-31.851 63.163-53.636 1.281-49.419 32.715-92.7729 73.179-93.8528 27.79-.7449 39.81 19.9658 39.81 37.6198 0 38.686-43.19 68.384-92.018 59.924 1.503 20.241 14.273 35.675 43.938 34.88zm-220.091 96.022c0 7.888 6.761 11.838 14.649 11.628 17.653-.473 32.674-24.912 46.946-61.723-34.176 11.052-61.595 31.691-61.595 50.095zm-472.511-169.533c0-10.517-6.761-20.855-19.531-20.514-25.541.682-45.82 29.394-50.327 60.688 33.425 8.873 69.858-9.753 69.858-40.174zm268.554-7.177c0-10.517-6.761-20.852-19.531-20.511-25.541.682-45.82 29.394-50.327 60.688 33.425 8.873 69.858-9.753 69.858-40.177zm155.874 3.725c0-16.527-7.888-28.336-21.785-28.339-21.785-.169-51.078 27.281-72.487 95.455 6.385 11.475 16.15 19.1 36.054 18.567 25.165-.669 58.218-45.497 58.218-85.683zm295.224-15.776c0-10.516-6.76-20.852-19.53-20.51-25.544.682-45.448 29.005-50.331 60.312 33.425 8.119 69.861-12.761 69.861-39.802zm-108.551-60.95c-7.512.2003-12.019-4.936-12.019-11.6968 0-11.268 9.014-20.5234 18.029-20.7644 6.761-.1784 12.019 4.5635 12.019 11.6968 0 10.5168-9.014 20.5234-18.029 20.7644zm-803.408 137.144c11.64 29.363 24.786 58.681 38.308 87.991l-24.414.654c-12.395-28.214-23.66-56.084-34.5521-84.335-11.6436 1.437-24.0384 1.769-36.4332.598-9.7656 28.805-19.5281 57.611-28.9181 86.404l-22.9116.613c26.292-75.821 51.4541-151.608 78.1217-227.4383l21.7843-.5821c-14.2723 40.1924-27.7939 80.7414-41.3155 120.9154 71.3605 5.605 133.3315-40.744 133.3315-106.4736 0-44.3177-34.927-67.799-74.741-66.7348-30.0449.8044-61.5953 13.6656-83.0045 27.7569l-9.3869-17.7753c23.2841-14.5201 57.0881-28.19193 93.1424-29.15597 54.838-1.46484 95.775 31.24367 95.775 84.20017 0 59.3446-45.444 107.5066-104.786 123.3626z" style="fill-rule:evenodd;clip-rule:evenodd;fill:#302e2d;stroke:#302e2d;stroke-width:9.39;stroke-linecap:round"/></svg>